<?xml version="1.0" encoding="iso-8859-1"?>
<!-- Generator: Adobe Illustrator 19.0.0, SVG Export Plug-In . SVG Version: 6.00 Build 0)  -->
<svg version="1.1" id="Capa_1" xmlns="http://www.w3.org/2000/svg" xmlns:xlink="http://www.w3.org/1999/xlink" x="0px" y="0px"
	 viewBox="0 0 512 512" style="enable-background:new 0 0 512 512;" xml:space="preserve">
<g>
	<g>
		<rect x="220.67" y="201" width="70.67" height="69.999"/>
	</g>
</g>
<g>
	<g>
		<rect x="120" y="201" width="70.67" height="69.999"/>
	</g>
</g>
<g>
	<g>
		<rect x="321.33" y="201" width="70.67" height="69.999"/>
	</g>
</g>
<g>
	<g>
		<path d="M497,231c8.284,0,15-6.716,15-15v-80c0-8.284-6.716-15-15-15H15c-8.284,0-15,6.716-15,15v80c0,8.284,6.716,15,15,15
			c13.785,0,25,11.215,25,25c0,13.785-11.215,25-25,25c-8.284,0-15,6.716-15,15v80c0,8.284,6.716,15,15,15h44v-55.001
			c0-8.284,6.716-15,15-15s15,6.716,15,15V391h37c8.284,0,15-6.716,15-15v-25.001h30V376c0,8.284,6.716,15,15,15h36.833v-55.001
			c0-8.284,6.716-15,15-15s15,6.716,15,15V391h21.834v-55.001c0-8.284,6.716-15,15-15s15,6.716,15,15V391H326.5v-55.001
			c0-8.284,6.716-15,15-15s15,6.716,15,15V391h21.833v-55.001c0-8.284,6.716-15,15-15s15,6.716,15,15V391h21.834v-55.001
			c0-8.284,6.716-15,15-15s15,6.716,15,15V391H497c8.284,0,15-6.716,15-15v-80c0-8.284-6.716-15-15-15c-13.785,0-25-11.215-25-25
			C472,242.215,483.215,231,497,231z M422,285.999c0,8.284-6.716,15-15,15H105c-8.284,0-15-6.716-15-15V186c0-8.284,6.716-15,15-15
			h302c8.284,0,15,6.716,15,15V285.999z"/>
	</g>
</g>
<g>
</g>
<g>
</g>
<g>
</g>
<g>
</g>
<g>
</g>
<g>
</g>
<g>
</g>
<g>
</g>
<g>
</g>
<g>
</g>
<g>
</g>
<g>
</g>
<g>
</g>
<g>
</g>
<g>
</g>
</svg>
